<svg width="757" height="192" viewBox="0 0 757 192" fill="none" xmlns="http://www.w3.org/2000/svg">
<g clip-path="url(#clip0_2010_2)">
<path d="M229.576 106.924V163.637H200.703V113.553C200.703 98.7765 194.419 94.2193 186.315 94.2193C177.747 94.2193 169.347 100.665 169.347 113.921V163.637H140.473V71.9391H168.241V84.6437H168.609C171.404 78.9984 181.156 69.3609 196.053 69.3609C212.165 69.3609 229.576 78.9151 229.576 106.924ZM302.336 113.369L339.172 163.637H303.3L273.279 119.63H272.725V163.637H243.852V28.3867H272.725V109.134H273.279L302.564 71.9391H337.699L302.336 113.369ZM486.223 141.173C474.543 141.173 463.827 132.665 463.827 117.42C463.827 102.777 474.084 94.0344 486.223 94.0344C497.905 94.0344 508.996 103.11 508.996 117.604C508.996 131.887 497.676 141.173 486.223 141.173ZM507.041 81.6984H506.673C501.567 75.8875 492.009 69.3609 478.676 69.3609C455.776 69.3609 435.391 87.3317 435.391 117.42C435.391 151.109 458.888 166.216 479.044 166.216C495.676 166.216 505.568 157.776 509.067 151.669H509.436V163.637H535.913V28.3867H507.041V81.6984ZM360.929 107.293C361.579 97.5541 369.337 89.7995 381.261 89.7995C393.836 89.7995 399.849 97.5541 399.849 107.293H360.929ZM382.011 68.9927C356.516 68.9927 332.959 86.4984 332.959 118.157C332.959 149.998 356.391 166.584 382.924 166.584C402.904 166.584 416.631 157.332 424.133 147.067L404.007 134.141C400.587 138.332 394.7 143.383 383.684 143.383C371.537 143.383 363.532 136.395 361.427 128.891C360.933 127.132 360.929 126.074 360.929 126.074H427.416C427.537 124.97 427.6 121.995 427.6 118.893C427.6 86.4984 407.517 68.9927 382.011 68.9927ZM30.5807 136.202H83.1224V163.637H0V28.3867H30.5807V136.202ZM127.233 42.5947C127.233 52.168 119.78 59.1636 110.586 59.1636C101.392 59.1636 93.9391 52.168 93.9391 42.5947C93.9391 33.0227 101.392 26.0187 110.586 26.0187C119.78 26.0187 127.233 33.0227 127.233 42.5947ZM96.1495 71.8693H125.022V163.568H96.1495V71.8693ZM727.919 163.639H699.053V113.554C699.053 98.7765 692.771 94.2197 684.669 94.2197C676.104 94.2197 667.708 100.666 667.708 113.922V163.639H638.843V71.9396H666.603V84.6443H666.971C669.764 78.9989 679.513 69.3615 694.407 69.3615C710.513 69.3615 727.919 78.9156 727.919 106.925V163.639ZM607.069 59.1631C597.879 59.1631 590.428 52.168 590.428 42.5947C590.428 33.0213 597.879 26.0187 607.069 26.0187C616.261 26.0187 623.712 33.0213 623.712 42.5947C623.712 52.168 616.261 59.1631 607.069 59.1631ZM621.501 163.568H592.637V71.8688H621.501V163.568ZM742.107 -1.00136e-05H578.448C570.621 -1.00136e-05 564.275 6.34533 564.275 14.1733V177.827C564.275 185.655 570.621 192 578.448 192H742.107C749.935 192 756.28 185.655 756.28 177.827V14.1733C756.28 6.34533 749.935 -1.00136e-05 742.107 -1.00136e-05Z" fill="black"/>
</g>
<defs>
<clipPath id="clip0_2010_2">
<rect width="756.28" height="192" fill="white"/>
</clipPath>
</defs>
</svg>
