<svg width="512" height="512" viewBox="0 0 512 512" fill="none" xmlns="http://www.w3.org/2000/svg">
<path d="M256 512C397.385 512 512 397.385 512 256C512 114.615 397.385 0 256 0C114.615 0 0 114.615 0 256C0 397.385 114.615 512 256 512Z" fill="#E6BD00"/>
<path d="M426.923 282.163L424.104 241.366L373.207 188.643H373.079C372.299 187.81 371.199 187.276 369.961 187.276C368.722 187.276 367.623 187.81 366.854 188.643H366.833L342.702 214.641L283.274 128.36C282.121 126.683 280.188 125.573 277.999 125.573C275.81 125.573 273.728 126.769 272.586 128.563L237.672 183.795C227.603 153.686 199.192 131.969 165.698 131.969C123.779 131.969 89.8049 165.954 89.8049 207.861C89.8049 245.167 116.722 276.184 152.191 282.558L165.164 256.239C138.738 256.239 117.32 234.821 117.32 208.395C117.32 181.969 138.738 160.551 165.164 160.551C191.59 160.551 213.008 181.969 213.008 208.395C213.008 217.951 210.21 226.845 205.384 234.319L174.431 283.263C174.57 283.252 174.698 283.22 174.837 283.209L123.043 365.156H158.01L228.009 251.168C229.653 248.808 231.17 246.341 232.536 243.79L248.84 217.236L277.786 260.852L303.71 205.779L369.032 300.239L359.583 239.337L371.242 227.283L426.912 282.152L426.923 282.163Z" fill="black"/>
</svg>
