<svg width="481" height="130" viewBox="0 0 481 130" fill="none" xmlns="http://www.w3.org/2000/svg">
<path d="M300.476 6.60268C300.476 5.55201 299.644 4.70535 298.601 4.70535H275.879C274.841 4.70535 273.997 5.55201 273.997 6.60268C273.997 6.60668 274.004 50.5147 274.004 50.5147H238.584V6.60268C238.584 5.55201 237.749 4.70535 236.709 4.70535H213.988C212.955 4.70535 212.111 5.55201 212.111 6.60268V125.505C212.111 126.555 212.955 127.407 213.988 127.407H236.709C237.749 127.407 238.584 126.555 238.584 125.505V74.6454H274.004C274.004 74.6454 273.941 125.501 273.941 125.505C273.941 126.555 274.784 127.407 275.824 127.407H298.6C299.641 127.407 300.473 126.555 300.476 125.505V6.60268Z" fill="black"/>
<path d="M135.376 22.204C135.376 14.0227 128.817 7.41067 120.724 7.41067C112.639 7.41067 106.073 14.0227 106.073 22.204C106.073 30.3787 112.639 37.0093 120.724 37.0093C128.817 37.0093 135.376 30.3787 135.376 22.204Z" fill="black"/>
<path d="M92.4974 55.5867H52.1413C51.1 55.5867 50.256 56.432 50.256 57.4734V77.204C50.256 78.2454 51.1 79.0934 52.1413 79.0934H67.884V103.607C67.884 103.607 64.3493 104.812 54.576 104.812C43.0467 104.812 26.94 100.599 26.94 65.1813C26.94 29.7547 43.712 25.0947 59.4573 25.0947C73.088 25.0947 78.9587 27.4934 82.696 28.6507C83.8707 29.0107 84.956 27.8414 84.956 26.7987L89.4573 7.73602C89.4573 7.24669 89.292 6.66135 88.7373 6.26268C87.22 5.18002 77.9627 1.99482e-05 54.576 1.99482e-05C27.636 1.99482e-05 0 11.4613 0 66.5627C0 121.664 31.64 129.875 58.3027 129.875C80.3787 129.875 93.7707 120.441 93.7707 120.441C94.3227 120.136 94.3827 119.364 94.3827 119.012V57.4734C94.3827 56.432 93.5387 55.5867 92.4974 55.5867Z" fill="black"/>
<path d="M133.752 100.423C133.752 97.376 133.752 45.5373 133.752 45.5373C133.752 44.4947 132.911 43.6427 131.872 43.6427H109.22C108.181 43.6427 107.252 44.7147 107.252 45.756C107.252 45.756 107.252 111.801 107.252 124.392C107.252 126.702 108.692 127.39 110.555 127.39C110.555 127.39 120.224 127.39 130.963 127.39C133.203 127.39 133.752 126.29 133.752 124.355C133.752 120.14 133.752 103.628 133.752 100.423Z" fill="black"/>
<path d="M386.832 43.8214H364.284C363.251 43.8214 362.408 44.6747 362.408 45.7241V104.024C362.408 104.024 356.679 108.216 348.548 108.216C340.419 108.216 338.261 104.527 338.261 96.5667C338.261 88.5947 338.261 45.7241 338.261 45.7241C338.261 44.6747 337.421 43.8214 336.385 43.8214H313.5C312.468 43.8214 311.621 44.6747 311.621 45.7241C311.621 45.7241 311.621 76.7707 311.621 100.415C311.621 124.063 324.8 129.848 342.929 129.848C357.804 129.848 369.796 121.629 369.796 121.629C369.796 121.629 370.367 125.961 370.625 126.473C370.883 126.985 371.556 127.504 372.284 127.504L386.843 127.438C387.875 127.438 388.721 126.585 388.721 125.54L388.713 45.7241C388.713 44.6747 387.872 43.8214 386.832 43.8214Z" fill="black"/>
<path d="M439.568 108.144C431.747 107.907 426.441 104.356 426.441 104.356V66.7027C426.441 66.7027 431.675 63.4947 438.096 62.9214C446.216 62.1934 454.04 64.6467 454.04 84.0174C454.04 104.443 450.509 108.473 439.568 108.144ZM448.461 41.1507C435.655 41.1507 426.944 46.864 426.944 46.864V6.60271C426.944 5.55204 426.104 4.70538 425.069 4.70538H402.281C401.245 4.70538 400.404 5.55204 400.404 6.60271V125.505C400.404 126.555 401.245 127.407 402.284 127.407C402.287 127.407 418.089 127.407 418.095 127.407C418.807 127.407 419.345 127.04 419.744 126.399C420.137 125.759 420.704 120.915 420.704 120.915C420.704 120.915 430.021 129.745 447.66 129.745C468.369 129.745 480.245 119.241 480.245 82.5907C480.245 45.94 461.277 41.1507 448.461 41.1507Z" fill="black"/>
<path d="M199.059 43.632H182.013C182.013 43.632 181.988 21.12 181.988 21.1147C181.988 20.2614 181.548 19.836 180.563 19.836H157.336C156.432 19.836 155.948 20.2334 155.948 21.1014V44.3707C155.948 44.3707 144.308 47.1814 143.52 47.4067C142.737 47.6347 142.16 48.3574 142.16 49.22V63.8427C142.16 64.8947 143 65.7427 144.039 65.7427H155.948C155.948 65.7427 155.948 81.036 155.948 100.921C155.948 127.05 174.276 129.618 186.643 129.618C192.295 129.618 199.055 127.801 200.171 127.39C200.845 127.141 201.237 126.443 201.237 125.684L201.257 109.599C201.257 108.551 200.371 107.7 199.373 107.7C198.379 107.7 195.839 108.105 193.223 108.105C184.849 108.105 182.013 104.212 182.013 99.1734C182.013 94.1374 182.012 65.7427 182.012 65.7427H199.059C200.097 65.7427 200.939 64.8947 200.939 63.8427V45.5267C200.939 44.4774 200.097 43.632 199.059 43.632Z" fill="black"/>
</svg>
