<svg width="55" height="19" viewBox="0 0 55 19" fill="none" xmlns="http://www.w3.org/2000/svg">
<path d="M25.404 8.13077V9.09111H26.2472C26.5236 9.09111 26.7251 8.88499 26.7251 8.60859C26.7251 8.33221 26.5236 8.13077 26.2472 8.13077H25.404ZM25.404 10.8291H24.7763V7.54988H26.2472C26.5705 7.54988 26.8375 7.65294 27.053 7.85439C27.2732 8.05581 27.3809 8.30878 27.3809 8.60859C27.3809 8.91309 27.2732 9.16607 27.053 9.36749C26.8375 9.56893 26.5705 9.672 26.2472 9.672H25.404V10.8291Z" fill="#414042"/>
<path d="M30.0274 7.54987H29.5167L28.1114 10.8291H28.7719L29.7744 8.44464L30.7722 10.8291H31.4327L30.0274 7.54987Z" fill="#414042"/>
<path d="M35.1566 7.73256C35.433 7.89653 35.6391 8.12137 35.7796 8.40248L35.1707 8.632C34.9833 8.29472 34.6413 8.08389 34.229 8.08389C33.9199 8.08389 33.6622 8.19166 33.4561 8.40248C33.2499 8.61327 33.1469 8.8756 33.1469 9.18948C33.1469 9.50336 33.2453 9.76569 33.4467 9.97651C33.6481 10.1873 33.8918 10.2904 34.1822 10.2904C34.4024 10.2904 34.6085 10.2248 34.7912 10.0983C34.9739 9.97181 35.1004 9.80317 35.1707 9.59235H34.1353V9.02081H35.8827C35.8874 9.0911 35.8921 9.14263 35.8921 9.18481C35.8921 9.6673 35.7281 10.0749 35.4049 10.4075C35.0816 10.7354 34.6741 10.8994 34.1916 10.8994C33.7091 10.8994 33.3015 10.7354 32.9782 10.4122C32.655 10.0842 32.491 9.67668 32.491 9.18948C32.491 8.70228 32.655 8.29472 32.9876 7.97148C33.3202 7.64355 33.7325 7.47961 34.229 7.47961C34.571 7.47961 34.8802 7.56392 35.1566 7.73256Z" fill="#414042"/>
<path d="M39.4752 7.54987H40.103V9.51271C40.103 9.90623 39.9671 10.2342 39.6907 10.5012C39.419 10.7682 39.077 10.8994 38.6695 10.8994C38.2619 10.8994 37.9246 10.7682 37.6482 10.5012C37.3765 10.2342 37.2406 9.90623 37.2406 9.51271V7.54987H37.8684V9.51271C37.8684 9.74226 37.9433 9.93433 38.0979 10.0889C38.2525 10.2435 38.4399 10.3185 38.6695 10.3185C38.899 10.3185 39.0911 10.2435 39.2457 10.0889C39.4002 9.93433 39.4752 9.74226 39.4752 9.51271V7.54987Z" fill="#414042"/>
<path d="M42.1684 8.13077V9.09111H43.0585C43.3349 9.09111 43.5364 8.88499 43.5364 8.60859C43.5364 8.33221 43.3349 8.13077 43.0585 8.13077H42.1684ZM43.0585 7.54988C43.3817 7.54988 43.6488 7.65294 43.8642 7.85439C44.0845 8.05581 44.1922 8.30878 44.1922 8.60859C44.1922 9.03491 43.9486 9.39559 43.5692 9.56426L44.3187 10.8291H43.6207L42.932 9.672H42.1684V10.8291H41.5407V7.54988H43.0585Z" fill="#414042"/>
<path d="M45.6392 7.54987H46.267V10.8291H45.6392V7.54987Z" fill="#414042"/>
<path d="M47.5879 8.13077V7.54988H50.394V8.13077H49.3071V10.8291H48.6747V8.13077H47.5879Z" fill="#414042"/>
<path d="M53.0215 7.54987H52.5109L51.1055 10.8291H51.7661L52.7685 8.44464L53.7664 10.8291H54.4269L53.0215 7.54987Z" fill="#414042"/>
<path d="M30.5528 13.1258L30.1572 12.6965L30.5287 12.2841H30.6682L30.2967 12.6965L30.6923 13.1258H30.5528ZM30.0333 12.2841H30.1416V13.1258H30.0333V12.2841Z" fill="#414042"/>
<path d="M32.4944 12.2841V12.3851H31.9965V12.6497H32.433V12.7507H31.9965V13.0248H32.5004V13.1258H31.8883V12.2841H32.4944Z" fill="#414042"/>
<path d="M34.3289 12.2841V12.3851H33.831V12.6497H34.2675V12.7507H33.831V13.0248H34.3349V13.1258H33.7228V12.2841H34.3289Z" fill="#414042"/>
<path d="M35.6656 12.3851V12.7025H35.9265C35.9722 12.7025 36.0107 12.6869 36.0408 12.6569C36.0708 12.6268 36.0864 12.5883 36.0864 12.5438C36.0864 12.4524 36.0179 12.3851 35.9265 12.3851H35.6656ZM35.6656 13.1258H35.5573V12.2841H35.9265C36.0047 12.2841 36.0696 12.3094 36.1213 12.3586C36.173 12.408 36.1995 12.4705 36.1995 12.5438C36.1995 12.6172 36.173 12.6797 36.1213 12.729C36.0696 12.7783 36.0047 12.8036 35.9265 12.8036H35.6656V13.1258Z" fill="#414042"/>
<path d="M38.8405 13.1258V12.2841H38.9488L39.2879 12.8757L39.6258 12.2841H39.734V13.1258H39.6258V12.4897L39.3227 13.0212H39.2518L38.9488 12.4909V13.1258H38.8405Z" fill="#414042"/>
<path d="M41.6346 12.9406C41.6959 12.8769 41.7271 12.7988 41.7271 12.705C41.7271 12.6112 41.6959 12.533 41.6346 12.4705C41.5732 12.4067 41.4975 12.3755 41.4048 12.3755C41.3135 12.3755 41.2365 12.4067 41.1752 12.4705C41.1138 12.533 41.0826 12.6112 41.0826 12.705C41.0826 12.7988 41.1138 12.8769 41.1752 12.9406C41.2365 13.0032 41.3135 13.0345 41.4048 13.0345C41.4975 13.0345 41.5732 13.0032 41.6346 12.9406ZM41.7151 12.3959C41.7981 12.4789 41.8402 12.5811 41.8402 12.705C41.8402 12.8288 41.7981 12.9322 41.7151 13.0152C41.6321 13.0982 41.5287 13.1391 41.4048 13.1391C41.281 13.1391 41.1776 13.0982 41.0946 13.0152C41.0117 12.9322 40.9708 12.8288 40.9708 12.705C40.9708 12.5811 41.0117 12.4789 41.0946 12.3959C41.1776 12.313 41.281 12.2709 41.4048 12.2709C41.5287 12.2709 41.6321 12.313 41.7151 12.3959Z" fill="#414042"/>
<path d="M43.3247 13.1258L42.9616 12.2841H43.0758L43.3693 12.9695L43.3969 12.9022L43.6614 12.2841H43.7757L43.4125 13.1258H43.3247Z" fill="#414042"/>
<path d="M44.9716 12.2841H45.0799V13.1258H44.9716V12.2841Z" fill="#414042"/>
<path d="M46.3493 13.1258V12.2841H46.4444L46.965 12.9383V12.2841H47.0696V13.1258H46.9747L46.4539 12.4717V13.1258H46.3493Z" fill="#414042"/>
<path d="M48.4327 12.3947C48.5169 12.3117 48.6215 12.2709 48.7478 12.2709C48.9162 12.2709 49.0581 12.3551 49.1338 12.4897L49.028 12.5294C48.9714 12.4344 48.8681 12.3755 48.7478 12.3755C48.6552 12.3755 48.577 12.4068 48.5133 12.4705C48.4495 12.533 48.4183 12.6112 48.4183 12.705C48.4183 12.7988 48.4484 12.8769 48.5097 12.9406C48.571 13.0032 48.6456 13.0344 48.7345 13.0344C48.8115 13.0344 48.8789 13.0104 48.9378 12.9635C48.9967 12.9154 49.0328 12.8541 49.046 12.7795H48.7117V12.6785H49.1674C49.1687 12.693 49.1699 12.705 49.1699 12.7146C49.1674 12.8348 49.1254 12.9358 49.0424 13.0176C48.9594 13.0982 48.8584 13.1391 48.7382 13.1391C48.6155 13.1391 48.5133 13.0982 48.4303 13.0152C48.3474 12.9322 48.3065 12.8288 48.3065 12.705C48.3065 12.5811 48.3486 12.4777 48.4327 12.3947Z" fill="#414042"/>
<path d="M4.23092 8.22799V5.80612L3.1974 6.43148V8.22799C3.1974 11.3221 5.11725 13.9763 7.82791 15.0615V13.9334C5.70202 12.9134 4.23092 10.7389 4.23092 8.22799Z" fill="#EF95FF"/>
<path d="M9.90686 14.5197C9.73104 14.5014 9.55838 14.476 9.38732 14.4441V12.8744V11.7955V8.6186H9.38095C9.38095 7.60261 10.2084 6.77598 11.2244 6.77598C12.4544 6.77598 13.4545 7.77685 13.4545 9.00691C13.4545 10.2942 12.4767 11.5019 11.1305 11.8759C10.7359 11.9857 10.3174 12.0016 9.90686 11.9308V12.9746C10.4113 13.0383 10.9213 13.0065 11.4074 12.8712C11.6032 12.8168 11.7926 12.7481 11.9756 12.6679C12.3437 12.8105 13.1347 13.0721 13.9813 13.0721C14.0525 13.0721 14.1242 13.0698 14.196 13.0659C13.1866 14.0076 11.876 14.5523 10.5553 14.5523C10.3365 14.5523 10.1201 14.5412 9.90686 14.5197ZM8.32358 11.167C8.13501 10.9999 7.96874 10.8153 7.82792 10.6156C7.58476 10.2712 7.41458 9.88225 7.31949 9.46572L7.34019 9.47137C7.34992 9.43573 7.5566 8.71972 8.34877 8.59799C8.34872 8.60488 8.34823 8.61171 8.34823 8.6186V11.1885C8.34028 11.1813 8.33152 11.1742 8.32358 11.167ZM9.61788 6.21574C9.62246 6.21904 9.62703 6.22236 9.6316 6.22571C9.06462 6.60407 8.63968 7.17836 8.45308 7.85099C7.93407 7.87914 7.53777 8.07471 7.24747 8.32728C7.26934 8.08434 7.31293 7.8376 7.38157 7.5891C7.47495 7.24946 7.60696 6.92881 7.77123 6.63312C8.13708 5.97472 9.0068 5.77537 9.61788 6.21574ZM12.0701 5.34272C12.305 5.53395 12.5162 5.77568 12.6681 6.08093C12.2324 5.86517 11.7424 5.74326 11.2244 5.74326C10.9193 5.74326 10.6255 5.79137 10.3494 5.87966C9.96347 5.49064 9.5124 5.29456 9.1044 5.20106C9.23722 5.11698 9.4587 5.02687 9.69126 4.94578C10.4995 4.66404 11.4063 4.80241 12.0701 5.34272ZM14.4788 8.6419C14.4753 8.64494 14.4719 8.64798 14.4684 8.651C14.3912 7.93987 14.0844 7.2968 13.6239 6.79724C13.5403 6.0063 13.1972 5.34395 12.6154 4.843C13.3411 5.05449 14.0046 5.45855 14.5436 5.99317C15.2864 6.73002 15.2632 7.94948 14.4788 8.6419ZM15.8016 8.2081C15.9765 8.93974 15.9653 9.69856 15.7812 10.432C15.4561 11.7274 14.136 12.517 12.8444 12.1771C12.8382 12.1755 12.832 12.1738 12.8258 12.1722C13.6855 11.5293 14.2828 10.5853 14.4437 9.55925C14.8222 9.34856 15.4097 8.90686 15.7684 8.07941C15.7799 8.12215 15.7913 8.16495 15.8016 8.2081ZM12.573 3.76536C11.7479 3.58316 10.891 3.56486 10.0954 3.71445C8.3538 4.04143 6.89624 5.45523 6.38467 7.31461C5.89616 9.08723 6.36556 10.8169 7.63935 11.9427C7.70062 11.9968 7.76346 12.0493 7.82792 12.0995C7.99339 12.2299 8.16763 12.3469 8.34823 12.4503V14.1545V15.2477V18.1152H9.38732V15.4928C9.55838 15.5206 9.73183 15.5421 9.90686 15.5572C10.1201 15.5763 10.3365 15.5859 10.5553 15.5859C12.4671 15.5859 14.3536 14.6422 15.6027 13.0614C16.7834 11.5648 17.2218 9.7094 16.8064 7.96861C16.3148 5.90636 14.6129 4.21726 12.573 3.76536Z" fill="#F77062"/>
<path d="M21.3721 6.37734L10.8386 1.7774e-05L4.23117 4.00067V2.07239H3.19776V4.62636L0 6.56254V7.7706L10.8386 1.20805L21.3721 7.5854V6.37734Z" fill="#FE5196"/>
</svg>
