<svg width="535" height="265" viewBox="0 0 535 265" fill="none" xmlns="http://www.w3.org/2000/svg">
<path d="M0 264.567H264.566V-1.37982e-05H0V264.567Z" fill="#A11A1C"/>
<path d="M200.323 101.429L149.797 130.845C140.623 136.14 132.558 122.211 141.733 116.913L192.266 87.5107C201.45 82.2094 209.487 96.1387 200.323 101.429ZM61.7083 101.624L112.793 130.591C121.955 135.879 130.001 121.939 120.816 116.635L69.7224 87.68C60.5531 82.3867 52.5301 96.3254 61.7083 101.624ZM122.968 208.013L122.961 149.247C122.961 144.797 126.576 141.203 131.012 141.203C135.457 141.203 139.057 144.804 139.057 149.248L139.05 208.013C139.05 212.451 135.461 216.059 131.012 216.057C126.569 216.057 122.968 212.456 122.968 208.013ZM72.4 176.621L96.9385 162.707C106.12 157.404 98.0667 143.467 88.9 148.76L64.3672 162.688C55.1968 167.984 63.224 181.92 72.4 176.621ZM194.806 177.081L170.914 162.671C161.743 157.377 169.81 143.447 178.987 148.747L202.873 163.168C212.035 168.457 203.993 182.384 194.806 177.081ZM131.007 48.5107C126.557 48.5107 122.968 52.1174 122.968 56.5547L122.961 84.7667C122.961 89.2094 126.563 92.812 131.007 92.812C135.442 92.812 139.057 89.2147 139.057 84.7667L139.05 56.5547C139.05 52.112 135.45 48.5107 131.007 48.5107Z" fill="white"/>
<path d="M270.235 264.567H534.803V-1.37982e-05H270.235V264.567Z" fill="#B0D2F0"/>
<path d="M477.782 165.013L464.32 140.6C459.024 131.428 445.085 139.453 450.376 148.616L463.852 173.024C469.15 182.203 483.068 174.167 477.782 165.013ZM475.416 90.4894C475.416 86.044 471.813 82.4574 467.377 82.4574L439.189 82.4507C434.749 82.4507 431.15 86.0507 431.15 90.4894C431.15 94.9227 434.744 98.5347 439.189 98.5347L467.377 98.528C471.818 98.528 475.416 94.9294 475.416 90.4894ZM427.08 189.017C429.3 185.171 427.984 180.256 424.137 178.036C420.288 175.813 415.38 177.14 413.162 180.981L399.062 205.389C396.842 209.235 398.16 214.151 402.005 216.371C405.844 218.587 410.769 217.281 412.992 213.432L427.08 189.017ZM407.048 59.0773C409.269 55.2307 407.95 50.316 404.106 48.096C400.256 45.8734 395.348 47.2 393.13 51.0413L379.03 75.4493C376.81 79.2947 378.129 84.2107 381.973 86.4307C385.813 88.6467 390.737 87.3414 392.96 83.4907L407.048 59.0773ZM374.849 174.077C374.849 169.644 371.254 166.032 366.81 166.032L338.621 166.039C334.182 166.039 330.582 169.639 330.582 174.077C330.581 178.524 334.188 182.109 338.621 182.109L366.808 182.116C371.249 182.116 374.849 178.517 374.849 174.077ZM355.269 116.911L341.169 92.5027C338.952 88.6614 334.044 87.3347 330.194 89.5574C326.349 91.7774 325.032 96.692 327.252 100.539L341.34 124.952C343.562 128.803 348.488 130.108 352.326 127.892C356.17 125.672 357.489 120.756 355.269 116.911Z" fill="white"/>
</svg>
